<svg id="visual" viewBox="0 0 900 600" width="900" height="600" xmlns="http://www.w3.org/2000/svg" xmlns:xlink="http://www.w3.org/1999/xlink" version="1.1"><rect x="0" y="0" width="900" height="600" fill="#001220"></rect><defs><linearGradient id="grad1_0" x1="33.3%" y1="100%" x2="100%" y2="0%"><stop offset="20%" stop-color="#009473" stop-opacity="1"></stop><stop offset="80%" stop-color="#009473" stop-opacity="1"></stop></linearGradient></defs><defs><linearGradient id="grad1_1" x1="33.3%" y1="100%" x2="100%" y2="0%"><stop offset="20%" stop-color="#009473" stop-opacity="1"></stop><stop offset="80%" stop-color="#00505e" stop-opacity="1"></stop></linearGradient></defs><defs><linearGradient id="grad1_2" x1="33.3%" y1="100%" x2="100%" y2="0%"><stop offset="20%" stop-color="#001220" stop-opacity="1"></stop><stop offset="80%" stop-color="#00505e" stop-opacity="1"></stop></linearGradient></defs><defs><linearGradient id="grad2_0" x1="0%" y1="100%" x2="66.7%" y2="0%"><stop offset="20%" stop-color="#009473" stop-opacity="1"></stop><stop offset="80%" stop-color="#009473" stop-opacity="1"></stop></linearGradient></defs><defs><linearGradient id="grad2_1" x1="0%" y1="100%" x2="66.7%" y2="0%"><stop offset="20%" stop-color="#00505e" stop-opacity="1"></stop><stop offset="80%" stop-color="#009473" stop-opacity="1"></stop></linearGradient></defs><defs><linearGradient id="grad2_2" x1="0%" y1="100%" x2="66.7%" y2="0%"><stop offset="20%" stop-color="#00505e" stop-opacity="1"></stop><stop offset="80%" stop-color="#001220" stop-opacity="1"></stop></linearGradient></defs><g transform="translate(900, 600)"><path d="M-459.7 0C-428.3 -39 -396.9 -78 -388 -126.1C-379.1 -174.2 -392.7 -231.4 -371.9 -270.2C-351.1 -309 -295.9 -329.3 -249.2 -343C-202.5 -356.8 -164.3 -364 -124.2 -382.3C-84.1 -400.7 -42.1 -430.2 0 -459.7L0 0Z" fill="#002f42"></path><path d="M-306.5 0C-285.5 -26 -264.6 -52 -258.7 -84.1C-252.8 -116.1 -261.8 -154.3 -247.9 -180.1C-234.1 -206 -197.3 -219.5 -166.1 -228.7C-135 -237.8 -109.6 -242.6 -82.8 -254.9C-56.1 -267.1 -28 -286.8 0 -306.5L0 0Z" fill="#00726f"></path><path d="M-153.2 0C-142.8 -13 -132.3 -26 -129.3 -42C-126.4 -58.1 -130.9 -77.1 -124 -90.1C-117 -103 -98.6 -109.8 -83.1 -114.3C-67.5 -118.9 -54.8 -121.3 -41.4 -127.4C-28 -133.6 -14 -143.4 0 -153.2L0 0Z" fill="#009473"></path></g><g transform="translate(0, 0)"><path d="M459.7 0C464.2 54.5 468.7 109 437.2 142.1C405.8 175.1 338.4 186.7 308.2 223.9C278.1 261.2 285.1 324.2 261.6 360C238.1 395.8 184 404.5 135.3 416.6C86.7 428.7 43.3 444.2 0 459.7L0 0Z" fill="#002f42"></path><path d="M306.5 0C309.5 36.3 312.4 72.7 291.5 94.7C270.5 116.7 225.6 124.4 205.5 149.3C185.4 174.1 190 216.1 174.4 240C158.7 263.9 122.7 269.6 90.2 277.7C57.8 285.8 28.9 296.1 0 306.5L0 0Z" fill="#00726f"></path><path d="M153.2 0C154.7 18.2 156.2 36.3 145.7 47.4C135.3 58.4 112.8 62.2 102.7 74.6C92.7 87.1 95 108.1 87.2 120C79.4 131.9 61.3 134.8 45.1 138.9C28.9 142.9 14.4 148.1 0 153.2L0 0Z" fill="#009473"></path></g></svg>